<svg width="16" height="17" viewBox="0 0 16 17" fill="none" xmlns="http://www.w3.org/2000/svg">
<path fill-rule="evenodd" clip-rule="evenodd" d="M0.0803972 16.0914C0.0146672 16.3309 0.231972 16.552 0.471417 16.4892L4.17285 15.5186C5.34125 16.154 6.6567 16.4915 7.99604 16.4915H8C12.4073 16.4915 16 12.9056 16 8.49776C16 6.36133 15.1693 4.35194 13.6592 2.8429C12.149 1.33392 10.142 0.5 7.99993 0.5C3.59268 0.5 5.0957e-07 4.08587 5.0957e-07 8.4938C-0.000500318 9.89607 0.368184 11.2738 1.06904 12.4887L0.0803972 16.0914ZM5.46446 4.66964C5.61145 4.67359 5.77441 4.68157 5.92945 5.02707C6.03226 5.25708 6.20545 5.68051 6.34653 6.02543C6.45632 6.29383 6.54666 6.5147 6.56926 6.55991C6.62092 6.66315 6.65272 6.78227 6.58516 6.92123C6.5772 6.93762 6.56967 6.9533 6.56243 6.96839C6.50823 7.0813 6.46967 7.16166 6.37853 7.26673C6.34106 7.30991 6.30202 7.35727 6.26313 7.40445C6.19473 7.48743 6.12677 7.56988 6.06852 7.62813C5.9652 7.73129 5.85786 7.84257 5.97708 8.04904C6.09636 8.25551 6.51365 8.93458 7.12965 9.4826C7.79189 10.0745 8.36777 10.3239 8.65886 10.45C8.71538 10.4745 8.76116 10.4943 8.79476 10.5111C9.00146 10.6144 9.12463 10.5985 9.24384 10.4595C9.36313 10.3205 9.76049 9.85585 9.89963 9.64938C10.0347 9.44291 10.1738 9.47469 10.3646 9.54615C10.5553 9.61761 11.5727 10.118 11.7794 10.2212C11.8202 10.2416 11.8584 10.26 11.8938 10.2771C12.0376 10.3463 12.1353 10.3933 12.1768 10.4635C12.2284 10.5508 12.2284 10.9638 12.0576 11.4483C11.8827 11.9328 11.0402 12.3974 10.6587 12.4331C10.6225 12.4365 10.5866 12.4409 10.5496 12.4454C10.2 12.4878 9.75611 12.5417 8.1748 11.9169C6.2263 11.1476 4.94007 9.23907 4.68003 8.8532C4.6595 8.82274 4.64537 8.80177 4.63781 8.79159L4.63341 8.78568C4.5151 8.62676 3.7913 7.65446 3.7913 6.65128C3.7913 5.69149 4.26225 5.19179 4.47707 4.96387C4.49068 4.94943 4.50326 4.93608 4.51464 4.92377C4.70536 4.7173 4.92796 4.66568 5.06704 4.66568C5.20618 4.66568 5.34525 4.66568 5.46446 4.66964Z" fill="#CB2524"/>
</svg>
