<svg width="19" height="19" viewBox="0 0 19 19" fill="none" xmlns="http://www.w3.org/2000/svg">
<path fill-rule="evenodd" clip-rule="evenodd" d="M7.81948 1.24228C8.46793 1.08395 9.14555 1 9.84277 1C14.5372 1 18.3428 4.80558 18.3428 9.5C18.3428 10.1972 18.2588 10.8748 18.1005 11.5233C18.5697 12.2337 18.8428 13.085 18.8428 14C18.8428 16.4853 16.8281 18.5 14.3428 18.5C13.4277 18.5 12.5765 18.2269 11.8661 17.7577C11.2176 17.9161 10.54 18 9.84277 18C5.14835 18 1.34277 14.1944 1.34277 9.5C1.34277 8.80278 1.42672 8.12516 1.58506 7.4767C1.11589 6.76631 0.842773 5.91505 0.842773 5C0.842773 2.51472 2.85749 0.5 5.34277 0.5C6.25782 0.5 7.10908 0.773118 7.81948 1.24228ZM11.347 8.77251C11.7204 8.88386 12.0763 9.04721 12.4042 9.25774C12.7391 9.47795 13.0184 9.77372 13.22 10.1202C13.4287 10.504 13.5344 10.9353 13.5268 11.3722C13.5444 11.9356 13.3765 12.4893 13.049 12.9481C12.7044 13.4191 12.2314 13.7808 11.6866 13.9898C11.1005 14.2237 10.473 14.3365 9.84217 14.3212C9.09976 14.3421 8.36333 14.1829 7.69584 13.8572C7.25714 13.6263 6.88049 13.2932 6.59772 12.886C6.31478 12.4945 6.15625 12.0268 6.14276 11.544C6.14276 11.327 6.22897 11.1188 6.38243 10.9654C6.53588 10.8119 6.74401 10.7257 6.96103 10.7257C7.17805 10.7257 7.38618 10.8119 7.53964 10.9654C7.69309 11.1188 7.7793 11.327 7.7793 11.544C7.79611 11.6936 7.85324 11.8359 7.9446 11.9556C8.07474 12.1426 8.24752 12.2961 8.44865 12.4032C8.88412 12.6066 9.36188 12.7031 9.84217 12.6847C10.2575 12.6982 10.6713 12.6281 11.0589 12.4785C11.319 12.385 11.5468 12.2189 11.7152 11.9998C11.8399 11.8258 11.9016 11.6145 11.8903 11.4008C11.8989 11.2357 11.8657 11.071 11.7937 10.9221C11.7194 10.8001 11.6177 10.697 11.4967 10.621C11.3027 10.4987 11.0925 10.4039 10.8724 10.3395C10.6932 10.2847 10.4976 10.2315 10.2947 10.1791L10.2799 10.1775C10.2709 10.1745 10.2582 10.1714 10.2469 10.1687C10.243 10.1678 10.2392 10.1669 10.2358 10.166C10.1032 10.1325 9.97064 10.0989 9.82907 10.0678C9.4674 9.9901 9.21701 9.92709 9.0599 9.87963C9.05635 9.87874 9.05328 9.87665 9.05017 9.87453C9.04754 9.87274 9.04489 9.87093 9.0419 9.86981C8.67857 9.78173 8.32133 9.67021 7.97242 9.53596C7.51066 9.35073 7.10512 9.04841 6.79574 8.65877C6.47529 8.23824 6.30787 7.72097 6.32114 7.19243C6.32125 6.66152 6.4948 6.14518 6.81538 5.72199C7.15008 5.29639 7.59701 4.97274 8.1058 4.78752C8.66838 4.58534 9.26332 4.48827 9.86099 4.50113C10.3312 4.49593 10.7995 4.56102 11.2504 4.69424C11.641 4.80815 12.007 4.99379 12.3297 5.24167C12.609 5.45362 12.8421 5.72037 13.0146 6.02557C13.0664 6.12025 13.0989 6.22423 13.1104 6.33154C13.1218 6.43884 13.1119 6.54735 13.0812 6.65081C13.0505 6.75427 12.9997 6.85064 12.9316 6.93437C12.8635 7.01811 12.7796 7.08755 12.6846 7.1387C12.5895 7.18985 12.4853 7.2217 12.378 7.23242C12.2706 7.24314 12.1621 7.23251 12.0589 7.20115C11.9556 7.16979 11.8596 7.11832 11.7763 7.04969C11.693 6.98107 11.6242 6.89665 11.5736 6.80129C11.5039 6.69149 11.4136 6.59619 11.3077 6.52062C11.144 6.40125 10.9602 6.31202 10.7652 6.25714C10.4711 6.17286 10.1661 6.1326 9.86017 6.13767C9.46483 6.12602 9.07063 6.18589 8.69659 6.31442C8.47421 6.39017 8.27635 6.52444 8.1238 6.7031C8.01481 6.84259 7.95575 7.01459 7.95605 7.19161C7.94267 7.3567 7.98915 7.52109 8.08698 7.65475C8.22065 7.81809 8.39429 7.94409 8.59103 8.02052C8.97276 8.16751 9.36571 8.28353 9.76607 8.36746C10.1016 8.44111 10.3732 8.50657 10.6023 8.57039C10.8642 8.63504 11.1179 8.70296 11.347 8.77251Z" fill="#CB2524"/>
</svg>
