<svg width="20" height="19" viewBox="0 0 20 19" fill="none" xmlns="http://www.w3.org/2000/svg">
<path d="M17.8141 4.45045C18.1122 4.69607 18.3604 5.00068 18.5408 5.34748C18.5979 5.45722 18.5551 5.59008 18.4499 5.65518L12.184 9.53411C10.8401 10.366 9.14558 10.3835 7.78486 9.57942L1.47703 5.85207C1.37512 5.79185 1.32834 5.66789 1.37427 5.55879C1.55688 5.12501 1.84146 4.74675 2.19748 4.45271L2.19714 4.44973L2.20941 4.44292C2.47285 4.22768 2.77489 4.05832 3.10329 3.94631L7.21317 1.66305C8.9498 0.698255 11.0614 0.698254 12.7981 1.66305L16.9031 3.94364C17.2373 4.05652 17.5443 4.22873 17.8114 4.44821L17.8141 4.45045Z" fill="#CB2524"/>
<path d="M0.995992 7.71788C1.01417 7.53764 1.21318 7.43846 1.36914 7.53062L7.02176 10.8708C8.86274 11.9587 11.1553 11.935 12.9735 10.8095L18.6181 7.31525C18.7733 7.21915 18.9757 7.3165 18.9953 7.49802C19.2754 10.0855 19.2216 12.7 18.8341 15.2771C18.6356 16.5972 17.5582 17.6092 16.2282 17.7248L14.718 17.8561C11.5833 18.1286 8.43096 18.1286 5.29632 17.8561L3.78609 17.7248C2.45615 17.6092 1.37874 16.5972 1.18022 15.2771C0.803667 12.773 0.742256 10.2335 0.995992 7.71788Z" fill="#CB2524"/>
</svg>
