<svg width="38" height="38" viewBox="0 0 38 38" fill="none" xmlns="http://www.w3.org/2000/svg">
<path d="M23.2868 8.89465H15.6074C12.4863 8.89465 9.94727 11.4337 9.94727 14.5548V22.2345C9.94727 25.3556 12.4863 27.8946 15.6074 27.8946H23.2871C26.4082 27.8946 28.9473 25.3556 28.9473 22.2345V14.5548C28.947 11.4339 26.408 8.89465 23.2868 8.89465ZM27.0357 22.2345C27.0357 24.3049 25.3575 25.9833 23.2868 25.9833H15.6074C13.537 25.9833 11.8586 24.3051 11.8586 22.2345V14.5548C11.8586 12.4844 13.5368 10.806 15.6074 10.806H23.2871C25.3575 10.806 27.0359 12.4842 27.0359 14.5548L27.0357 22.2345Z" fill="white"/>
<path d="M19.4472 13.4806C16.7375 13.4806 14.5332 15.6851 14.5332 18.3945C14.5332 21.1042 16.7375 23.3085 19.4472 23.3085C22.1568 23.3085 24.3611 21.1042 24.3611 18.3945C24.3611 15.6849 22.1568 13.4806 19.4472 13.4806ZM19.4472 21.3974C17.7889 21.3974 16.4445 20.053 16.4445 18.3948C16.4445 16.7365 17.7889 15.3921 19.4472 15.3921C21.1054 15.3921 22.45 16.7365 22.45 18.3948C22.45 20.053 21.1054 21.3974 19.4472 21.3974Z" fill="white"/>
<path d="M24.3708 14.6952C25.0211 14.6952 25.5484 14.1679 25.5484 13.5176C25.5484 12.8672 25.0211 12.34 24.3708 12.34C23.7204 12.34 23.1932 12.8672 23.1932 13.5176C23.1932 14.1679 23.7204 14.6952 24.3708 14.6952Z" fill="white"/>
</svg>
