<svg width="20" height="19" viewBox="0 0 20 19" fill="none" xmlns="http://www.w3.org/2000/svg">
<path fill-rule="evenodd" clip-rule="evenodd" d="M16.8261 17.0734L16.8268 17.0717L16.8442 17.0282L19.843 1.90913V1.86002C19.843 1.48332 19.7038 1.15446 19.4009 0.957199C19.1358 0.784537 18.831 0.772241 18.6173 0.788462C18.3913 0.805616 18.1782 0.862032 18.0306 0.908992C17.9547 0.933152 17.8912 0.95643 17.8458 0.974037C17.823 0.982873 17.8045 0.990372 17.791 0.995959L17.7779 1.00152L1.05804 7.56045L1.05343 7.5621C1.0444 7.56539 1.03246 7.56984 1.01804 7.57546C0.989284 7.58665 0.950144 7.60267 0.904164 7.62351C0.813883 7.66442 0.689147 7.72756 0.562645 7.81419C0.347792 7.96133 -0.0613223 8.30965 0.00775988 8.86187C0.0649805 9.31928 0.380284 9.60978 0.592852 9.76019C0.706801 9.84081 0.815814 9.89895 0.895642 9.93696C0.93609 9.95621 0.970448 9.97096 0.996035 9.98138C1.00886 9.9866 1.01959 9.99078 1.02789 9.99393L1.03851 9.9979L1.04531 10.0004L3.97055 10.9852C3.96067 11.1688 3.97888 11.3559 4.02755 11.5405L5.49283 17.0989C5.66657 17.758 6.2628 18.2171 6.94437 18.2166C7.5553 18.2161 8.09712 17.8465 8.32731 17.2951L10.615 14.849L14.544 17.8613L14.5998 17.8857C14.9568 18.0414 15.2903 18.0908 15.5952 18.0491C15.8997 18.0075 16.1417 17.8798 16.3235 17.7344C16.5023 17.5913 16.6249 17.4298 16.702 17.3082C16.7411 17.2465 16.7704 17.1922 16.7906 17.1513C16.8008 17.1308 16.8088 17.1134 16.8148 17.0999L16.8223 17.0825L16.825 17.076L16.8261 17.0734ZM5.47795 11.1582C5.44465 11.0318 5.49693 10.8985 5.60721 10.8284L15.5292 4.52752C15.5292 4.52752 16.1128 4.17323 16.092 4.52752C16.092 4.52752 16.1961 4.59009 15.8834 4.88182C15.5868 5.15889 8.81171 11.7 8.12617 12.3618C8.0866 12.4 8.06298 12.4439 8.04904 12.4971L6.94323 16.7166L5.47795 11.1582Z" fill="#CB2524"/>
</svg>
