<svg width="22" height="22" viewBox="0 0 22 22" fill="none" xmlns="http://www.w3.org/2000/svg">
<path fill-rule="evenodd" clip-rule="evenodd" d="M2.4093 4.02775C0.986418 4.43166 0 5.77058 0 7.29804V18.6154C0 20.4846 1.47011 22 3.28358 22H18.7164C20.5299 22 22 20.4846 22 18.6154V8.79999C22 7.52583 21.3169 6.41611 20.3077 5.83867V3.39293C20.3077 1.15507 18.2508 -0.469127 16.1661 0.122636L2.4093 4.02775ZM7.29231 4.75132C6.91442 4.85859 6.99192 5.41537 7.38474 5.41537H18.3424V3.39293C18.3424 2.49778 17.5197 1.8481 16.6858 2.08481L7.29231 4.75132ZM17.0923 11.8462C15.8773 11.8462 14.8923 12.8311 14.8923 14.0462C14.8923 15.2612 15.8773 16.2462 17.0923 16.2462C18.3073 16.2462 19.2923 15.2612 19.2923 14.0462C19.2923 12.8311 18.3073 11.8462 17.0923 11.8462Z" fill="white"/>
</svg>
