<svg width="11" height="12" viewBox="0 0 11 12" fill="none" xmlns="http://www.w3.org/2000/svg">
<path d="M3.80979 5.05778C3.80979 3.98974 4.64697 3.12393 5.67967 3.12393C6.71238 3.12393 7.54955 3.98974 7.54955 5.05778C7.54955 6.12582 6.71238 6.99164 5.67967 6.99164C4.64697 6.99164 3.80979 6.12582 3.80979 5.05778Z" fill="#CB2524"/>
<path fill-rule="evenodd" clip-rule="evenodd" d="M0.946604 4.38979C1.14432 1.90913 3.14871 0 5.55543 0H5.80395C8.21067 0 10.2151 1.90913 10.4128 4.38979C10.5192 5.7254 10.1203 7.05161 9.30006 8.08908L6.54239 11.577C6.09651 12.141 5.26287 12.141 4.81699 11.577L2.05932 8.08908C1.23907 7.05161 0.840154 5.7254 0.946604 4.38979ZM5.67967 2.23137C4.17033 2.23137 2.94677 3.4968 2.94677 5.05778C2.94677 6.61877 4.17033 7.88419 5.67967 7.88419C7.18901 7.88419 8.41257 6.61877 8.41257 5.05778C8.41257 3.4968 7.18901 2.23137 5.67967 2.23137Z" fill="#CB2524"/>
</svg>
