<svg width="22" height="22" viewBox="0 0 22 22" fill="none" xmlns="http://www.w3.org/2000/svg">
<path fill-rule="evenodd" clip-rule="evenodd" d="M4 2C4 0.89543 4.89543 0 6 0H16C17.1046 0 18 0.895431 18 2V4C19.1046 4 20 4.89543 20 6V19H21C21.5523 19 22 19.4477 22 20V22H0V20C0 19.4477 0.447715 19 1 19H2V6C2 4.89543 2.89543 4 4 4V2ZM9 19H13V14C13 13.4478 12.5522 13 12 13H10C9.44775 13 9 13.4478 9 14V19ZM5 6C4.44775 6 4 6.44775 4 7V9C4 9.55225 4.44775 10 5 10H6C6.55225 10 7 9.55225 7 9V7C7 6.44775 6.55225 6 6 6H5ZM10.5 6C9.94775 6 9.5 6.44775 9.5 7V9C9.5 9.55225 9.94775 10 10.5 10H11.5C12.0522 10 12.5 9.55225 12.5 9V7C12.5 6.44775 12.0522 6 11.5 6H10.5ZM16 6C15.4478 6 15 6.44775 15 7V9C15 9.55225 15.4478 10 16 10H17C17.5522 10 18 9.55225 18 9V7C18 6.44775 17.5522 6 17 6H16ZM5 13C4.44775 13 4 13.4478 4 14V16C4 16.5522 4.44775 17 5 17H6C6.55225 17 7 16.5522 7 16V14C7 13.4478 6.55225 13 6 13H5ZM16 13C15.4478 13 15 13.4478 15 14V16C15 16.5522 15.4478 17 16 17H17C17.5522 17 18 16.5522 18 16V14C18 13.4478 17.5522 13 17 13H16Z" fill="white"/>
</svg>
