<svg width="23" height="22" viewBox="0 0 23 22" fill="none" xmlns="http://www.w3.org/2000/svg">
<path d="M6.97429 0C3.47835 0 0.5 3.1548 0.5 7.2521C0.5 10.0787 1.59666 12.4583 3.0501 14.4296C4.49855 16.3941 6.36727 18.0431 8.05665 19.4232L10.9715 21.8044C11.2907 22.0652 11.7093 22.0652 12.0285 21.8044L14.9433 19.4232C16.6327 18.0431 18.5015 16.3941 19.9499 14.4296C21.4033 12.4583 22.5 10.0787 22.5 7.2521C22.5 3.1548 19.5216 0 16.0257 0C14.2236 0 12.6379 1.0198 11.5 2.33933C10.3621 1.0198 8.77637 0 6.97429 0Z" fill="white"/>
</svg>
