<svg width="24" height="24" viewBox="0 0 24 24" fill="none" xmlns="http://www.w3.org/2000/svg">
<path fill-rule="evenodd" clip-rule="evenodd" d="M16 1C16.5523 1 17 1.44772 17 2V6C17 6.55228 17.4477 7 18 7H22C22.5523 7 23 7.44772 23 8V16C23 16.5523 22.5523 17 22 17H18C17.4477 17 17 17.4477 17 18V22C17 22.5523 16.5523 23 16 23H8C7.44772 23 7 22.5523 7 22V18C7 17.4477 6.55228 17 6 17H2C1.44772 17 1 16.5523 1 16V8C1 7.44772 1.44772 7 2 7H6C6.55228 7 7 6.55228 7 6V2C7 1.44772 7.44772 1 8 1H16ZM8 11.2135C8 9.72362 9.08304 8.57642 10.3543 8.57642C11.0096 8.57642 11.5862 8.94725 12 9.42708C12.4138 8.94725 12.9904 8.57642 13.6457 8.57642C14.917 8.57642 16 9.72362 16 11.2135C16 12.2414 15.6012 13.1067 15.0727 13.8235C14.546 14.5379 13.8664 15.1375 13.2521 15.6394L12.1922 16.5053C12.0761 16.6001 11.9239 16.6001 11.8078 16.5053L10.7479 15.6394C10.1336 15.1375 9.45402 14.5379 8.92731 13.8235C8.39879 13.1067 8 12.2414 8 11.2135Z" fill="white"/>
</svg>
