<svg width="15" height="16" viewBox="0 0 15 16" fill="none" xmlns="http://www.w3.org/2000/svg">
<path id="Union" fill-rule="evenodd" clip-rule="evenodd" d="M8.45754 0.359848C8.11709 -0.119949 7.41909 -0.119949 7.07864 0.359848L0.93264 7.61223C0.52285 8.1898 0.925316 8.99998 1.62209 8.99998H2.76809V15C2.76809 15.5523 3.21584 16 3.76809 16H11.7681C12.3203 16 12.7681 15.5523 12.7681 15V8.99998H13.9141C14.6109 8.99998 15.0133 8.1898 14.6035 7.61223L8.45754 0.359848ZM5.26809 11C5.26809 10.4477 5.71584 9.99998 6.26809 9.99998H9.26809C9.82034 9.99998 10.2681 10.4477 10.2681 11V13C10.2681 13.5523 9.82034 14 9.26809 14H6.26809C5.71584 14 5.26809 13.5523 5.26809 13V11Z" fill="white"/>
</svg>
