<svg width="38" height="38" viewBox="0 0 38 38" fill="none" xmlns="http://www.w3.org/2000/svg">
<g id="Solid">
<path id="Subtract" fill-rule="evenodd" clip-rule="evenodd" d="M25.4833 26.79L25.484 26.7883L25.5014 26.7448L28.5002 11.6257V11.5766C28.5002 11.1999 28.361 10.871 28.0581 10.6738C27.793 10.5011 27.4882 10.4888 27.2745 10.505C27.0485 10.5222 26.8354 10.5786 26.6879 10.6255C26.612 10.6497 26.5484 10.673 26.503 10.6906C26.4802 10.6994 26.4617 10.7069 26.4483 10.7125L26.4351 10.7181L9.71526 17.277L9.71066 17.2787C9.70163 17.2819 9.68969 17.2864 9.67526 17.292C9.64651 17.3032 9.60737 17.3192 9.56139 17.3401C9.47111 17.381 9.34637 17.4441 9.21987 17.5307C9.00502 17.6779 8.5959 18.0262 8.66499 18.5784C8.72221 19.0358 9.03751 19.3263 9.25008 19.4767C9.36403 19.5574 9.47304 19.6155 9.55287 19.6535C9.59332 19.6728 9.62767 19.6875 9.65326 19.6979C9.66609 19.7032 9.67682 19.7073 9.68512 19.7105L9.69574 19.7144L9.70253 19.717L12.6278 20.7018C12.6179 20.8853 12.6361 21.0724 12.6848 21.2571L14.1501 26.8155C14.3238 27.4745 14.92 27.9336 15.6016 27.9331C16.2125 27.9327 16.7544 27.5631 16.9845 27.0117L19.2722 24.5656L23.2012 27.5778L23.2571 27.6022C23.614 27.758 23.9475 27.8073 24.2525 27.7657C24.557 27.7241 24.7989 27.5964 24.9807 27.451C25.1595 27.3079 25.2821 27.1464 25.3592 27.0248C25.3984 26.963 25.4276 26.9087 25.4478 26.8679C25.458 26.8473 25.466 26.83 25.472 26.8164L25.4796 26.799L25.4822 26.7926L25.4833 26.79ZM14.1352 20.8747C14.1019 20.7484 14.1542 20.615 14.2644 20.545L24.1865 14.2441C24.1865 14.2441 24.77 13.8898 24.7492 14.2441C24.7492 14.2441 24.8533 14.3066 24.5406 14.5984C24.244 14.8754 17.4689 21.4165 16.7834 22.0784C16.7438 22.1166 16.7202 22.1604 16.7063 22.2136L15.6005 26.4331L14.1352 20.8747Z" fill="white"/>
</g>
</svg>
