<svg width="26" height="22" viewBox="0 0 26 22" fill="none" xmlns="http://www.w3.org/2000/svg">
<path fill-rule="evenodd" clip-rule="evenodd" d="M21.6121 20.5574L21.6129 20.5552L21.6346 20.5003L25.375 1.42086V1.35889C25.375 0.883508 25.2014 0.468505 24.8236 0.219574C24.4929 0.00168383 24.1128 -0.0138337 23.8463 0.00663584C23.5644 0.0282843 23.2985 0.0994776 23.1145 0.158739C23.0198 0.189227 22.9406 0.218604 22.8839 0.240822C22.8555 0.251973 22.8325 0.261436 22.8157 0.268486L22.7992 0.275499L1.94468 8.55253L1.93894 8.55461C1.92768 8.55876 1.91278 8.56438 1.89479 8.57147C1.85893 8.58559 1.81011 8.60581 1.75276 8.6321C1.64015 8.68374 1.48457 8.76342 1.32678 8.87274C1.0588 9.05841 0.548513 9.49798 0.634679 10.1949C0.70605 10.7721 1.09933 11.1387 1.36446 11.3285C1.50659 11.4302 1.64256 11.5036 1.74213 11.5516C1.79258 11.5759 1.83543 11.5945 1.86735 11.6076C1.88335 11.6142 1.89673 11.6195 1.90708 11.6235L1.92033 11.6285L1.9288 11.6316L5.57744 12.8744C5.56513 13.106 5.58783 13.3422 5.64854 13.5752L7.47618 20.5896C7.69288 21.4213 8.43655 22.0006 9.28667 22C10.0487 21.9994 10.7245 21.533 11.0116 20.8372L13.865 17.7504L18.7656 21.5516L18.8353 21.5824C19.2805 21.779 19.6965 21.8413 20.0768 21.7887C20.4566 21.7362 20.7584 21.5751 20.9851 21.3916C21.2082 21.211 21.3611 21.0072 21.4573 20.8537C21.5061 20.7758 21.5426 20.7073 21.5678 20.6557C21.5805 20.6298 21.5905 20.6079 21.598 20.5908L21.6074 20.5688L21.6107 20.5607L21.6121 20.5574ZM7.45761 13.0926C7.41608 12.9332 7.48129 12.7649 7.61885 12.6766L19.9945 4.72513C19.9945 4.72513 20.7224 4.27803 20.6964 4.72513C20.6964 4.72513 20.8263 4.80409 20.4363 5.17223C20.0663 5.52189 11.6158 13.7764 10.7607 14.6116C10.7114 14.6598 10.6819 14.7151 10.6645 14.7823L9.28525 20.1071L7.45761 13.0926Z" fill="white"/>
</svg>
