<svg width="38" height="38" viewBox="0 0 38 38" fill="none" xmlns="http://www.w3.org/2000/svg">
<g id="Solid">
<path id="Subtract" fill-rule="evenodd" clip-rule="evenodd" d="M9.17946 28.5148C9.1014 28.7992 9.35945 29.0617 9.64379 28.9872L14.0392 27.8346C15.4267 28.5891 16.9888 28.9899 18.5793 28.9899H18.584C23.8177 28.9899 28.084 24.7317 28.084 19.4973C28.084 16.9603 27.0975 14.5742 25.3043 12.7822C23.511 10.9903 21.1277 10 18.5839 10C13.3503 10 9.08398 14.2582 9.08398 19.4926C9.08339 21.1578 9.5212 22.7939 10.3535 24.2365L9.17946 28.5148ZM15.573 14.9514C15.7476 14.9561 15.9411 14.9656 16.1252 15.3759C16.2473 15.649 16.453 16.1519 16.6205 16.5614C16.7509 16.8802 16.8581 17.1425 16.885 17.1961C16.9463 17.3187 16.9841 17.4602 16.9039 17.6252C16.8944 17.6447 16.8855 17.6633 16.8769 17.6812C16.8125 17.8153 16.7667 17.9107 16.6585 18.0355C16.614 18.0868 16.5676 18.143 16.5215 18.199C16.4402 18.2976 16.3595 18.3955 16.2904 18.4646C16.1677 18.5872 16.0402 18.7193 16.1818 18.9645C16.3234 19.2097 16.8189 20.0161 17.5504 20.6668C18.3369 21.3697 19.0207 21.6659 19.3664 21.8157C19.4335 21.8447 19.4879 21.8683 19.5278 21.8882C19.7732 22.0108 19.9195 21.9919 20.061 21.8269C20.2027 21.6618 20.6746 21.1101 20.8398 20.8649C21.0002 20.6197 21.1654 20.6574 21.392 20.7423C21.6185 20.8272 22.8266 21.4213 23.072 21.5439C23.1205 21.5682 23.1658 21.59 23.2079 21.6103C23.3786 21.6925 23.4947 21.7483 23.5439 21.8316C23.6053 21.9353 23.6053 22.4258 23.4023 23.0011C23.1947 23.5764 22.1942 24.1281 21.7411 24.1706C21.6982 24.1746 21.6556 24.1798 21.6116 24.1851C21.1964 24.2356 20.6694 24.2996 18.7916 23.5575C16.4777 22.6441 14.9503 20.3776 14.6415 19.9194C14.6171 19.8833 14.6004 19.8583 14.5914 19.8463L14.5862 19.8393C14.4457 19.6505 13.5861 18.4959 13.5861 17.3046C13.5861 16.1649 14.1454 15.5715 14.4005 15.3009C14.4167 15.2837 14.4316 15.2678 14.4451 15.2532C14.6716 15.008 14.9359 14.9467 15.1011 14.9467C15.2663 14.9467 15.4315 14.9467 15.573 14.9514Z" fill="white"/>
</g>
</svg>
