<svg width="16" height="16" viewBox="0 0 16 16" fill="none" xmlns="http://www.w3.org/2000/svg">
<g clip-path="url(#clip0_10009_5783)">
<path d="M4.70857 0C2.16607 0 0 2.2944 0 5.27426C0 7.32993 0.797574 9.06062 1.85462 10.4943C2.90803 11.923 4.2671 13.1222 5.49575 14.1259L7.61562 15.8578C7.84778 16.0474 8.15222 16.0474 8.38438 15.8578L10.5043 14.1259C11.7329 13.1222 13.092 11.923 14.1454 10.4943C15.2024 9.06062 16 7.32993 16 5.27426C16 2.2944 13.8339 0 11.2914 0C9.98083 0 8.82757 0.74167 8 1.70133C7.17243 0.74167 6.01917 0 4.70857 0Z" fill="#CB2524"/>
</g>
<defs>
<clipPath id="clip0_10009_5783">
<rect width="16" height="16" fill="white"/>
</clipPath>
</defs>
</svg>
