<svg width="12" height="12" viewBox="0 0 12 12" fill="none" xmlns="http://www.w3.org/2000/svg">
<path d="M4.58594 1.3613C4.90198 0.388679 6.27802 0.38868 6.59406 1.3613L7.18992 3.19514C7.33126 3.63011 7.73661 3.92461 8.19398 3.92461H10.1222C11.145 3.92461 11.5702 5.23326 10.7428 5.83438L9.18279 6.96775C8.81277 7.23658 8.65794 7.71308 8.79927 8.14805L9.39514 9.98188C9.71118 10.9545 8.59793 11.7633 7.77054 11.1622L6.21054 10.0288C5.84052 9.75999 5.33948 9.75999 4.96946 10.0288L3.40946 11.1622C2.58207 11.7633 1.46883 10.9545 1.78486 9.98188L2.38073 8.14805C2.52206 7.71308 2.36723 7.23658 1.99721 6.96775L0.43721 5.83438C-0.390179 5.23326 0.0350439 3.92461 1.05775 3.92461H2.98602C3.44339 3.92461 3.84874 3.63011 3.99008 3.19514L4.58594 1.3613Z" fill="white"/>
</svg>
