<svg width="16" height="16" viewBox="0 0 16 16" fill="none" xmlns="http://www.w3.org/2000/svg">
<g clip-path="url(#clip0_10009_5781)">
<path d="M7.2427 2.3544C7.43266 2.57468 7.70912 2.70133 8 2.70133C8.29088 2.70133 8.56734 2.57468 8.7573 2.3544C9.47032 1.52757 10.3701 1 11.2914 1C13.1933 1 15 2.75401 15 5.27426C15 7.0553 14.3126 8.58239 13.3405 9.90082C12.3646 11.2244 11.0865 12.359 9.87159 13.3515L8 14.8805L6.12841 13.3515C4.91346 12.359 3.63537 11.2244 2.65949 9.90082C1.6874 8.58239 1 7.0553 1 5.27426C1 2.75401 2.80669 1 4.70857 1C5.62987 1 6.52968 1.52757 7.2427 2.3544Z" stroke="white" stroke-width="2" stroke-linecap="round" stroke-linejoin="round"/>
</g>
<defs>
<clipPath id="clip0_10009_5781">
<rect width="16" height="16" fill="white"/>
</clipPath>
</defs>
</svg>
