<svg width="15" height="16" viewBox="0 0 15 16" fill="none" xmlns="http://www.w3.org/2000/svg">
<g id="Icon">
<path d="M5.03866 6.74371C5.03866 5.31966 6.26064 4.16523 7.76803 4.16523C9.27542 4.16523 10.4974 5.31966 10.4974 6.74371C10.4974 8.16776 9.27542 9.32219 7.76803 9.32219C6.26064 9.32219 5.03866 8.16776 5.03866 6.74371Z" fill="white"/>
<path fill-rule="evenodd" clip-rule="evenodd" d="M0.859409 5.85306C1.148 2.54551 4.07371 0 7.58668 0H7.94942C11.4624 0 14.3881 2.54551 14.6767 5.85306C14.8321 7.63387 14.2498 9.40215 13.0525 10.7854L9.02729 15.436C8.37646 16.188 7.15964 16.188 6.50881 15.436L2.48358 10.7854C1.2863 9.40215 0.70403 7.63387 0.859409 5.85306ZM7.76803 2.97517C5.56492 2.97517 3.77896 4.6624 3.77896 6.74371C3.77896 8.82502 5.56492 10.5123 7.76803 10.5123C9.97113 10.5123 11.7571 8.82502 11.7571 6.74371C11.7571 4.6624 9.97113 2.97517 7.76803 2.97517Z" fill="white"/>
</g>
</svg>
