<svg width="17" height="16" viewBox="0 0 17 16" fill="none" xmlns="http://www.w3.org/2000/svg">
<path id="Icon" d="M5.47664 0C2.93414 0 0.768066 2.2944 0.768066 5.27426C0.768066 7.32993 1.56564 9.06062 2.62269 10.4943C3.6761 11.923 5.03517 13.1222 6.26381 14.1259L8.38369 15.8578C8.61585 16.0474 8.92028 16.0474 9.15244 15.8578L11.2723 14.1259C12.501 13.1222 13.86 11.923 14.9134 10.4943C15.9705 9.06062 16.7681 7.32993 16.7681 5.27426C16.7681 2.2944 14.602 0 12.0595 0C10.7489 0 9.59564 0.74167 8.76807 1.70133C7.94049 0.74167 6.78724 0 5.47664 0Z" fill="white"/>
</svg>
