<svg width="24" height="24" viewBox="0 0 24 24" fill="none" xmlns="http://www.w3.org/2000/svg">
<path fill-rule="evenodd" clip-rule="evenodd" d="M19.1697 2.65874C20.0206 4.25412 19.6621 5.63353 18.6731 6.76191H18.8095C21.1239 6.76191 23 8.63805 23 10.9524V12H1V10.9524C1 8.66222 2.83711 6.80117 5.11803 6.76251C4.1286 5.63401 3.76989 4.25441 4.62088 2.65874C6.05816 -0.0361708 10.5813 0.413499 11.8953 5.03587C13.2093 0.413499 17.7324 -0.0361708 19.1697 2.65874ZM10.6501 6.97972C10.6863 7.41395 10.7144 7.79914 10.7356 8.13985C9.29533 7.7195 7.8665 7.07506 6.88563 6.28203C6.25984 5.77609 5.92011 5.29381 5.78686 4.87505C5.67036 4.50886 5.66211 4.04576 6.00746 3.39823C6.37985 2.69995 7.24537 2.33654 8.25226 2.73039C9.20409 3.10269 10.4261 4.29124 10.6501 6.97972ZM13.0853 7.68896C13.0739 7.84725 13.0639 7.99742 13.055 8.13985C14.4953 7.7195 15.9241 7.07506 16.905 6.28203C17.5308 5.77609 17.8705 5.29381 18.0037 4.87505C18.1202 4.50886 18.1285 4.04576 17.7831 3.39823C17.4107 2.69995 16.5452 2.33654 15.5383 2.73039C14.5865 3.10269 13.3645 4.29124 13.1405 6.97972C13.1194 7.23245 13.1011 7.46856 13.0853 7.68896Z" fill="white"/>
<path d="M1 14.0952V18.8095C1 21.1239 2.87611 23 5.19048 23H18.8095C21.1239 23 23 21.1239 23 18.8095V14.0952H1Z" fill="white"/>
</svg>
