<svg width="13" height="16" viewBox="0 0 13 16" fill="none" xmlns="http://www.w3.org/2000/svg">
<path id="Icon" d="M6.82378 0.0499023C6.56633 -0.0566561 6.31276 0.0178891 6.14965 0.174714C5.9912 0.327052 5.91195 0.559556 5.96751 0.793974C6.05521 1.16399 6.10152 1.54895 6.10152 1.94436C6.10152 2.84715 5.8605 3.47945 5.44579 4.00362C5.02421 4.53646 4.41395 4.97026 3.64344 5.45972C3.63133 5.46741 3.62005 5.47621 3.60977 5.486L3.51645 5.57477C1.86326 6.58305 0.768188 8.33862 0.768188 10.3358C0.768188 13.464 3.45448 16 6.76819 16C10.0819 16 12.7682 13.464 12.7682 10.3358C12.7682 9.4173 12.5364 8.54931 12.1249 7.78164C12.0915 7.71919 12.0272 7.67661 11.9536 7.66812C11.88 7.65963 11.8068 7.68635 11.7584 7.73936C11.6957 7.80796 11.6343 7.87566 11.5738 7.94237C10.7931 8.80349 10.1631 9.49841 8.87144 9.80883C8.81651 9.82203 8.78239 9.81221 8.75817 9.79794C8.72968 9.78113 8.6985 9.74758 8.67714 9.69397C8.63261 9.58226 8.65172 9.4398 8.74295 9.34642C9.43378 8.63936 9.92454 7.67956 10.0999 6.31418C10.4284 3.75655 9.19707 1.0322 6.82378 0.0499023Z" fill="white"/>
</svg>
