<svg width="17" height="16" viewBox="0 0 17 16" fill="none" xmlns="http://www.w3.org/2000/svg">
<g id="Icon">
<path d="M8.50004 0C6.48918 0 4.85906 1.63012 4.85906 3.64099C4.85906 5.65185 6.48918 7.28197 8.50004 7.28197C10.5109 7.28197 12.141 5.65185 12.141 3.64099C12.141 1.63012 10.5109 0 8.50004 0Z" fill="#CB2524"/>
<path d="M4.61633 9.22383C2.60547 9.22383 0.975342 10.854 0.975342 12.8648V14.0186C0.975342 14.7499 1.50536 15.3735 2.22713 15.4913C6.38157 16.1696 10.6185 16.1696 14.773 15.4913C15.4947 15.3735 16.0247 14.7499 16.0247 14.0186V12.8648C16.0247 10.854 14.3946 9.22383 12.3838 9.22383H12.0528C11.8737 9.22383 11.6957 9.25216 11.5254 9.30776L10.685 9.58216C9.26526 10.0458 7.73483 10.0458 6.31505 9.58216L5.4747 9.30776C5.30442 9.25216 5.12642 9.22383 4.94729 9.22383H4.61633Z" fill="#CB2524"/>
</g>
</svg>
