<svg width="17" height="16" viewBox="0 0 17 16" fill="none" xmlns="http://www.w3.org/2000/svg">
<g id="Frame 177" clip-path="url(#clip0_10253_170)">
<g id="Group 1171273748">
<path id="Vector 55" d="M4.26807 16L1.26807 13L9.26807 5L12.2681 8L4.26807 16Z" fill="white"/>
<path id="Vector 56" d="M13.2681 7L10.2681 4L12.2681 2L15.2681 5L13.2681 7Z" fill="white"/>
<path id="Intersect" d="M7.68231 3.82855C7.55115 3.53114 7.35788 3.24482 7.10484 2.99178C6.8518 2.73874 6.56548 2.54547 6.26807 2.41431C6.56548 2.28315 6.8518 2.08988 7.10484 1.83683C7.35788 1.58379 7.55115 1.29747 7.68231 1.00006C7.81347 1.29747 8.00674 1.58379 8.25978 1.83683C8.51283 2.08988 8.79915 2.28315 9.09656 2.41431C8.79915 2.54547 8.51283 2.73874 8.25978 2.99178C8.00674 3.24482 7.81347 3.53114 7.68231 3.82855Z" fill="white"/>
<path id="Intersect_2" d="M15.4145 2.29291C15.3082 2.05182 15.1515 1.81972 14.9464 1.6146C14.7413 1.40947 14.5092 1.25281 14.2681 1.14648C14.5092 1.04016 14.7413 0.883494 14.9464 0.678371C15.1515 0.473248 15.3082 0.24115 15.4145 6.09372e-05C15.5208 0.24115 15.6775 0.473247 15.8826 0.678371C16.0877 0.883494 16.3198 1.04016 16.5609 1.14648C16.3198 1.25281 16.0877 1.40947 15.8826 1.6146C15.6775 1.81972 15.5208 2.05182 15.4145 2.29291Z" fill="white"/>
<path id="Intersect_3" d="M14.9752 10.4141C14.9096 10.2654 14.813 10.1223 14.6864 9.99575C14.5599 9.86924 14.4168 9.77261 14.2681 9.70703C14.4168 9.64145 14.5599 9.54482 14.6864 9.41831C14.813 9.29179 14.9096 9.14864 14.9752 8.99994C15.0407 9.14864 15.1374 9.29179 15.2639 9.41831C15.3904 9.54482 15.5336 9.64145 15.6823 9.70703C15.5336 9.77261 15.3904 9.86924 15.2639 9.99575C15.1374 10.1223 15.0407 10.2654 14.9752 10.4141Z" fill="white"/>
</g>
</g>
<defs>
<clipPath id="clip0_10253_170">
<rect width="16" height="16" fill="white" transform="translate(0.768066)"/>
</clipPath>
</defs>
</svg>
