<svg width="24" height="24" viewBox="0 0 24 24" fill="none" xmlns="http://www.w3.org/2000/svg">
<path fill-rule="evenodd" clip-rule="evenodd" d="M7.63636 6.05905C7.63636 5.68292 7.83013 5.33331 8.14909 5.13396L14.6945 1.04305C15.4163 0.591963 16.3511 1.10437 16.3635 1.95101V21.8178H16.3636V22.0316C16.3636 22.8884 15.4211 23.4108 14.6945 22.9567L8.14909 18.8658C7.83013 18.6664 7.63636 18.3168 7.63636 17.9407V6.05905ZM18.5453 18.5616L22.3883 19.5056L22.9088 17.3868L18.5453 16.3149V18.5616ZM18.5453 7.68525L22.9088 6.61337L22.3883 4.49455L18.5453 5.43857V7.68525ZM0 8.72714C0 7.52216 0.976833 6.54533 2.18182 6.54533H5.45455V17.4544H2.18182C0.976833 17.4544 0 16.4776 0 15.2726V8.72714ZM18.5455 10.909H24V13.0908H18.5455V10.909Z" fill="white"/>
</svg>
