<svg width="18" height="16" viewBox="0 0 18 16" fill="none" xmlns="http://www.w3.org/2000/svg">
<path d="M13.2131 6.46824C13.2131 6.46824 13.9146 5.93481 13.3806 5.40138C12.8466 4.86796 12.3274 5.55632 12.3274 5.55632L6.95942 10.9255C6.95942 10.9255 5.70218 12.5481 4.74624 11.567C3.79144 10.5847 5.38715 9.35322 5.38715 9.35322L12.4258 2.31516C12.4258 2.31516 14.0684 0.50562 15.6126 2.04873C17.1546 3.59242 15.3399 5.23844 15.3399 5.23844L7.4311 13.1472C7.4311 13.1472 4.9006 16.0705 2.55821 13.7276C0.215809 11.3846 3.16768 8.88268 3.16768 8.88268L9.17204 2.8766C9.17204 2.8766 9.84439 2.31516 9.3407 1.80975C8.83471 1.30491 8.27441 1.97841 8.27441 1.97841L1.38443 8.86838C1.38443 8.86838 -1.21639 11.7208 1.68803 14.6246C4.59244 17.5302 7.44654 14.9293 7.44654 14.9293L16.9162 5.45856C16.9162 5.45856 18.8109 3.36887 16.552 1.1088C14.2931 -1.15127 12.2028 0.743462 12.2028 0.743462L4.05444 8.89068C4.05444 8.89068 1.9676 10.5882 3.86119 12.4806C5.75478 14.3753 7.42138 12.2576 7.42138 12.2576L13.2131 6.46824Z" fill="white"/>
</svg>
