<svg width="63" height="63" viewBox="0 0 63 63" fill="none" xmlns="http://www.w3.org/2000/svg">
<path d="M15 43L35 63L63 63L15 15L15 43Z" fill="#6590FF"/>
<path d="M2.97237e-06 28L34 62L48 48L5.42021e-06 -4.19629e-06L2.97237e-06 28Z" fill="#6590FF"/>
<path d="M8.55361 27.5035L11.877 20.9557L12.8316 21.9103L11.184 25.0711L9.98197 27.15L10.0032 27.1712L12.075 25.962L15.2358 24.3145L16.1621 25.2408L9.61427 28.5642L8.55361 27.5035ZM11.9173 30.8672L16.8529 25.9316L20.1056 29.1843L19.2783 30.0116L16.959 27.6923L15.7639 28.8873L17.8146 30.9379L16.9872 31.7652L14.9366 29.7146L13.678 30.9733L15.9973 33.2926L15.17 34.1199L11.9173 30.8672ZM17.0905 36.0404L16.1572 35.1071L21.0928 30.1715L23.3202 32.3988C23.5464 32.6251 23.7138 32.8632 23.8222 33.113C23.9306 33.3629 23.9778 33.6174 23.9636 33.8767C23.9589 34.136 23.8953 34.3929 23.7727 34.6474C23.6549 34.9067 23.4804 35.1519 23.2494 35.3828C22.91 35.7223 22.54 35.9367 22.1393 36.0263C21.7433 36.1206 21.3403 36.0664 20.9301 35.8637L19.9331 38.883L18.8937 37.8436L19.8765 35.0222L18.9927 34.1383L17.0905 36.0404ZM20.9796 34.5555C21.1588 34.7347 21.3473 34.8289 21.5453 34.8384C21.748 34.8431 21.9389 34.7559 22.1181 34.5767L22.4433 34.2515C22.6225 34.0723 22.7073 33.8838 22.6979 33.6858C22.6885 33.4878 22.5942 33.2992 22.4151 33.1201L21.213 31.918L19.7776 33.3534L20.9796 34.5555ZM20.6477 39.5976L21.3973 38.8481L22.0478 39.4986L25.4843 36.0621L24.8338 35.4116L25.5833 34.662L27.8249 36.9036L27.0753 37.6531L26.4177 36.9955L22.9812 40.432L23.6388 41.0896L22.8893 41.8392L20.6477 39.5976ZM23.8428 42.7927L28.7784 37.8571L31.9533 41.032L31.126 41.8593L28.8845 39.6178L27.6895 40.8128L29.6411 42.7644L28.8138 43.5917L26.8622 41.6401L24.7762 43.7261L23.8428 42.7927ZM27.7188 46.6687L28.4683 45.9192L29.1189 46.5697L32.5554 43.1332L31.9049 42.4826L32.6544 41.7331L34.8959 43.9746L34.1464 44.7242L33.4888 44.0666L30.0523 47.5031L30.7099 48.1607L29.9603 48.9102L27.7188 46.6687ZM30.9139 49.8638L35.8495 44.9282L39.1022 48.1809L38.2749 49.0082L35.9555 46.6889L34.7605 47.8839L36.8111 49.9345L35.9838 50.7618L33.9332 48.7112L32.6746 49.9698L34.9939 52.2892L34.1666 53.1165L30.9139 49.8638ZM40.0894 49.1681L41.8854 50.9641C42.206 51.2847 42.444 51.6264 42.5996 51.9894C42.7599 52.3571 42.8282 52.7366 42.8046 53.1278C42.7905 53.5191 42.6774 53.9198 42.4652 54.3299C42.2625 54.7401 41.9561 55.1502 41.546 55.5603C41.1359 55.9704 40.7234 56.2792 40.3086 56.4866C39.9032 56.694 39.5025 56.8072 39.1065 56.826C38.7199 56.8449 38.3428 56.7742 37.9751 56.6139C37.6121 56.4583 37.2704 56.2203 36.9498 55.8997L35.1538 54.1037L40.0894 49.1681ZM37.7771 55.0724C38.126 55.4212 38.5031 55.5957 38.9085 55.5957C39.3233 55.5957 39.7429 55.3835 40.1671 54.9593L40.945 54.1814C41.3692 53.7572 41.579 53.34 41.5743 52.9299C41.579 52.5197 41.4069 52.1403 41.0581 51.7914L40.1954 50.9287L36.9144 54.2097L37.7771 55.0724Z" fill="#131217"/>
</svg>
