<svg width="17" height="16" viewBox="0 0 17 16" fill="none" xmlns="http://www.w3.org/2000/svg">
<path id="Icon" d="M9.43267 0.892396C9.13655 0.369202 8.39959 0.3692 8.10346 0.892396L6.01802 4.57701C5.87174 4.83546 5.61891 5.01183 5.33071 5.05646L1.42246 5.66164C0.766044 5.76328 0.53579 6.61297 1.047 7.04718L3.95848 9.52015C4.22799 9.74906 4.35471 10.1101 4.28924 10.4626L3.52764 14.563C3.40725 15.2112 4.07097 15.7149 4.64046 15.4074L8.32058 13.4208C8.60067 13.2696 8.93546 13.2696 9.21556 13.4208L12.8957 15.4074C13.4652 15.7149 14.1289 15.2112 14.0085 14.563L13.2469 10.4626C13.1814 10.1101 13.3081 9.74906 13.5776 9.52015L16.4891 7.04718C17.0003 6.61297 16.7701 5.76328 16.1137 5.66164L12.2054 5.05646C11.9172 5.01183 11.6644 4.83546 11.5181 4.57701L9.43267 0.892396Z" fill="white"/>
</svg>
