<svg width="18" height="18" viewBox="0 0 18 18" fill="none" xmlns="http://www.w3.org/2000/svg">
<g clip-path="url(#clip0_10383_27167)">
<path d="M9 18C13.9706 18 18 13.9706 18 9C18 4.02944 13.9706 0 9 0C4.02944 0 0 4.02944 0 9C0 13.9706 4.02944 18 9 18Z" fill="#F0F0F0"/>
<path d="M9.00002 0C4.84177 0 1.34281 2.82027 0.310059 6.65216H17.69C16.6572 2.82027 13.1583 0 9.00002 0Z" fill="#A2001D"/>
<path d="M9.00002 18.0001C13.1583 18.0001 16.6572 15.1798 17.69 11.3479H0.310059C1.34281 15.1798 4.84177 18.0001 9.00002 18.0001Z" fill="#A2001D"/>
</g>
<defs>
<clipPath id="clip0_10383_27167">
<rect width="18" height="18" fill="white"/>
</clipPath>
</defs>
</svg>
