<svg width="18" height="18" viewBox="0 0 18 18" fill="none" xmlns="http://www.w3.org/2000/svg">
<g clip-path="url(#clip0_10383_27189)">
<path d="M9 18C13.9706 18 18 13.9706 18 9C18 4.02944 13.9706 0 9 0C4.02944 0 0 4.02944 0 9C0 13.9706 4.02944 18 9 18Z" fill="#F0F0F0"/>
<path d="M17.9238 7.82604H7.04352L7.04348 0.213867C6.21176 0.398297 5.42324 0.69723 4.69564 1.09425V7.82597V7.826H0.0761836C0.0260859 8.2103 0 8.60208 0 8.99994C0 9.3978 0.0260859 9.78959 0.0761836 10.1738H4.69561H4.69564V16.9056C5.42324 17.3026 6.21176 17.6016 7.04348 17.786V10.174V10.1739H17.9238C17.9738 9.78959 18 9.3978 18 8.99994C18 8.60208 17.9738 8.2103 17.9238 7.82604Z" fill="#0052B4"/>
</g>
<defs>
<clipPath id="clip0_10383_27189">
<rect width="18" height="18" fill="white"/>
</clipPath>
</defs>
</svg>
