<svg width="18" height="18" viewBox="0 0 18 18" fill="none" xmlns="http://www.w3.org/2000/svg">
<g clip-path="url(#clip0_10383_27177)">
<path d="M0 9.00001C0 10.1009 0.198035 11.1554 0.559793 12.1304L9 12.5218L17.4402 12.1305C17.802 11.1554 18 10.1009 18 9.00001C18 7.89913 17.802 6.84458 17.4402 5.8696L9 5.47827L0.559793 5.86956C0.198035 6.84458 0 7.89913 0 9.00001Z" fill="black"/>
<path d="M9.00002 0C5.13034 0 1.83145 2.44237 0.559814 5.86958H17.4403C16.1686 2.44237 12.8697 0 9.00002 0Z" fill="#0052B4"/>
<path d="M17.4402 12.1304H0.559814C1.83145 15.5575 5.13034 18 9.00002 18C12.8697 18 16.1686 15.5575 17.4402 12.1304Z" fill="#F0F0F0"/>
</g>
<defs>
<clipPath id="clip0_10383_27177">
<rect width="18" height="18" fill="white"/>
</clipPath>
</defs>
</svg>
