<svg width="210" height="211" viewBox="0 0 210 211" fill="none" xmlns="http://www.w3.org/2000/svg">
<path fill-rule="evenodd" clip-rule="evenodd" d="M101.818 197.549V191.186H95.4545V197.549H89.0909V203.913H108.182V210.277H114.545V197.549H101.818ZM44.5455 165.731H0V210.277H44.5455V165.731ZM159.091 203.913V197.549H152.727V210.277H165.455V203.913H159.091ZM165.455 76.6402V70.2766H159.091V83.0039H140V102.095H152.727V108.458H159.091V83.0039H184.545V95.7312H171.818V102.095H178.182V108.458H171.818V121.186H152.727V127.549H159.091V133.913H140V127.549H146.364V121.186H133.636V108.458H140V95.7312H133.636V102.095H127.273V95.7312H120.909V89.3675H127.273V95.7312H133.636V83.0039H114.545V89.3675H108.182V95.7312H101.818V89.3675H95.4545V95.7312H89.0909V102.095H108.182V108.458H95.4545V121.186H108.182V127.549H114.545V133.913H120.909V121.186H114.545V114.822H108.182V108.458H114.545V102.095H120.909V108.458H127.273V127.549H133.636V133.913H127.273V140.277H146.364V146.64H133.636V153.004H127.273V159.368H146.364V165.731H152.727V191.186H159.091V184.822H165.455V197.549H171.818V210.277H178.182V203.913H184.545V210.277H190.909V191.186H197.273V184.822H190.909V178.458H159.091V159.368H178.182V178.458H184.545V172.095H197.273V178.458H203.636V184.822H210V178.458H203.636V159.368H210V146.64H203.636V140.277H197.273V165.731H190.909V159.368H184.545V146.64H178.182V153.004H165.455V146.64H159.091V153.004H152.727V140.277H159.091V133.913H184.545V127.549H190.909V121.186H178.182V108.458H184.545V114.822H190.909V121.186H203.636V108.458H184.545V102.095H190.909V89.3675H197.273V102.095H203.636V89.3675H197.273V83.0039H190.909V76.6402H178.182V70.2766H171.818V76.6402H165.455ZM114.545 172.095H120.909V178.458H133.636V184.822H140V197.549H133.636V203.913H127.273V210.277H146.364V203.913H140V197.549H146.364V184.822H140V178.458H146.364V172.095H133.636V165.731H127.273V172.095H120.909V165.731H114.545V172.095ZM57.2727 203.913H50.9091V210.277H63.6364V197.549H57.2727V203.913ZM210 203.913H203.636V210.277H210V203.913ZM76.3636 197.549V191.186H70V197.549H76.3636V210.277H82.7273V197.549H76.3636ZM6.36364 172.095V203.913H38.1818V172.095H6.36364ZM31.8182 178.458H12.7273V197.549H31.8182V178.458ZM178.182 191.186H171.818V197.549H178.182V191.186ZM120.909 184.822H114.545V191.186H120.909V184.822ZM133.636 184.822H127.273V191.186H133.636V184.822ZM95.4545 184.822H82.7273V191.186H95.4545V184.822ZM108.182 178.458H101.818V184.822H108.182V178.458ZM63.6364 178.458H50.9091V184.822H63.6364V178.458ZM82.7273 178.458H70V184.822H82.7273V178.458ZM25.4545 95.7312V83.0039H19.0909V95.7312H6.36364V102.095H31.8182V108.458H44.5455V114.822H38.1818V121.186H44.5455V127.549H31.8182V159.368H50.9091V153.004H38.1818V146.64H50.9091V153.004H76.3636V146.64H82.7273V153.004H89.0909V159.368H95.4545V165.731H89.0909V172.095H95.4545V178.458H101.818V165.731H114.545V159.368H101.818H108.182V153.004H95.4545V146.64H89.0909V140.277H76.3636V133.913H70V146.64H57.2727V140.277H63.6364V133.913H57.2727V127.549H50.9091V95.7312H57.2727V89.3675H38.1818V95.7312H44.5455V102.095H38.1818V95.7312H25.4545ZM171.818 165.731H165.455V172.095H171.818V165.731ZM57.2727 159.368H50.9091V172.095H57.2727V159.368ZM70 165.731H63.6364V172.095H70V165.731ZM82.7273 159.368H76.3636V172.095H82.7273V159.368ZM12.7273 127.549V121.186H6.36364V127.549H0V140.277H6.36364V133.913H12.7273V153.004H0V159.368H12.7273V153.004H19.0909V140.277H25.4545V133.913H19.0909V127.549H12.7273ZM25.4545 153.004H19.0909V159.368H25.4545V153.004ZM108.182 146.64V133.913H101.818V146.64H108.182V153.004H114.545V146.64H108.182ZM190.909 133.913H184.545V140.277H190.909V133.913ZM50.9091 133.913H38.1818V140.277H50.9091V133.913ZM76.3636 114.822V102.095H70V114.822H63.6364V121.186H57.2727V127.549H82.7273V133.913H89.0909V140.277H95.4545V127.549H89.0909V121.186H82.7273V114.822H76.3636ZM210 127.549H203.636V133.913H210V127.549ZM6.36364 108.458V102.095H0V108.458H6.36364V114.822H12.7273V121.186H19.0909V127.549H31.8182V121.186H19.0909V114.822H12.7273V108.458H6.36364ZM152.727 108.458H146.364V121.186H152.727V108.458ZM89.0909 108.458H82.7273V114.822H89.0909V108.458ZM165.455 108.458H159.091V114.822H165.455V108.458ZM63.6364 108.458H57.2727V114.822H63.6364V108.458ZM31.8182 108.458H19.0909V114.822H31.8182V108.458ZM171.818 102.095H165.455V108.458H171.818V102.095ZM210 95.7312H203.636V108.458H210V95.7312ZM70 89.3675H63.6364V102.095H70V89.3675ZM25.4545 70.2766V63.913H12.7273V83.0039H6.36364V89.3675H12.7273V83.0039H19.0909V76.6402H25.4545V89.3675H38.1818V83.0039H50.9091V76.6402H38.1818V83.0039H31.8182V76.6402H38.1818V70.2766H25.4545ZM95.4545 70.2766V83.0039H108.182V70.2766H101.818V63.913H114.545V70.2766H120.909V63.913H127.273V57.5493H114.545V44.8221H108.182V57.5493H101.818V51.1857H95.4545V38.4584H101.818V44.8221H108.182V38.4584H101.818V32.0948H95.4545V38.4584H89.0909V51.1857H95.4545V57.5493H89.0909V63.913H82.7273V57.5493H89.0909V51.1857H82.7273V32.0948H89.0909V25.7312H82.7273V19.3675H70V25.7312H76.3636V32.0948H63.6364V44.8221H57.2727V19.3675H63.6364V13.0039H76.3636V0.276611H50.9091V6.64025H57.2727V19.3675H50.9091V51.1857H38.1818V57.5493H50.9091V63.913H57.2727V51.1857H63.6364V63.913H57.2727V89.3675H63.6364V83.0039H70V76.6402H63.6364V70.2766H70V51.1857H76.3636V70.2766H82.7273V76.6402H76.3636V83.0039H89.0909V70.2766H95.4545ZM95.4545 83.0039H89.0909V89.3675H95.4545V83.0039ZM171.818 57.5493V63.913H178.182V57.5493H184.545V63.913H190.909V70.2766H197.273V83.0039H203.636V63.913H197.273V57.5493H190.909V51.1857H159.091V57.5493H171.818ZM152.727 51.1857H140V44.8221H133.636V38.4584H140V44.8221H146.364V32.0948H152.727V19.3675H140V25.7312H133.636V32.0948H127.273V44.8221H120.909V32.0948H108.182V38.4584H114.545V51.1857H133.636V63.913H127.273V70.2766H120.909V76.6402H127.273V83.0039H140V63.913H146.364V83.0039H152.727V70.2766H159.091V63.913H152.727V51.1857ZM6.36364 70.2766H0V76.6402H6.36364V70.2766ZM184.545 63.913H178.182V70.2766H184.545V63.913ZM50.9091 63.913H38.1818V70.2766H50.9091V63.913ZM31.8182 51.1857H25.4545V63.913H31.8182V51.1857ZM6.36364 51.1857H0V57.5493H6.36364V51.1857ZM210 51.1857H203.636V57.5493H210V51.1857ZM159.091 38.4584H152.727V51.1857H159.091V38.4584ZM210 0.276611H165.455V44.8221H210V0.276611ZM70 38.4584V44.8221H76.3636V38.4584H70ZM44.5455 0.276611H0V44.8221H44.5455V0.276611ZM6.36364 6.64025V38.4584H38.1818V6.64025H6.36364ZM171.818 6.64025V38.4584H203.636V6.64025H171.818ZM197.273 13.0039H178.182V32.0948H197.273V13.0039ZM31.8182 13.0039H12.7273V32.0948H31.8182V13.0039ZM89.0909 6.64025V0.276611H82.7273V13.0039H89.0909V19.3675H95.4545V25.7312H101.818V32.0948H108.182V25.7312H114.545V19.3675H120.909V13.0039H127.273V6.64025H114.545V13.0039H108.182V19.3675H101.818V13.0039H95.4545V6.64025H89.0909ZM127.273 25.7312H120.909V32.0948H127.273V25.7312ZM140 6.64025V0.276611H133.636V6.64025H140V13.0039H127.273V19.3675H140V13.0039H146.364V6.64025H152.727V0.276611H146.364V6.64025H140ZM101.818 6.64025V13.0039H108.182V0.276611H95.4545V6.64025H101.818Z" fill="#CB2524"/>
</svg>
